<?xml version="1.0" encoding="UTF-8" standalone="no"?>
<svg
   width="899.95465"
   height="899.94916"
   viewBox="0 0 899.95465 899.94916"
   version="1.1"
   id="svg2690"
   sodipodi:docname="trace (2).svg"
   xmlns:inkscape="http://www.inkscape.org/namespaces/inkscape"
   xmlns:sodipodi="http://sodipodi.sourceforge.net/DTD/sodipodi-0.dtd"
   xmlns="http://www.w3.org/2000/svg"
   xmlns:svg="http://www.w3.org/2000/svg">
  <defs
     id="defs2694" />
  <sodipodi:namedview
     id="namedview2692"
     pagecolor="#ffffff"
     bordercolor="#000000"
     borderopacity="0.25"
     inkscape:showpageshadow="2"
     inkscape:pageopacity="0.0"
     inkscape:pagecheckerboard="0"
     inkscape:deskcolor="#d1d1d1"
     showgrid="false" />
  <path
     d="m 438.99464,11.100134 c -7.7,6.077 -16.25,12.768 -19,14.869 -2.75,2.101 -11.975,9.251 -20.5,15.888 -8.525,6.637 -20.562,15.924 -26.75,20.638 l -11.25,8.571 v 38.824996 38.825 l -2.25,0.603 c -1.238,0.331 -49.01,0.609 -106.16,0.616 l -103.91,0.014 0.41,106.25 0.41,106.25 -38.619,-0.373 -38.617999,-0.372 -14.882,17.309 c -18.55,21.575 -30.552,35.584 -36.381,42.46 -15.9269999,18.789 -20.4809999,24.048 -21.31299987,24.613 -1.006,0.682 2.14699997,5.612 9.95099987,15.56 2.674,3.409 7.016,9.034 9.648,12.5 2.632,3.467 14.111,18.468 25.509,33.337 11.398,14.869 21.619,28.254 22.714,29.744 l 1.991,2.71 39.086999,0.665 39.088,0.666 0.661,68.09 c 0.365,37.45 0.663,84.555 0.663,104.677 l 0.001,36.587 55.665,0.663 c 30.615,0.365 78.09,0.664 105.5,0.664 h 49.835 v 38.916 38.915 l 34.25,26.587 c 18.837,14.623 39.078,30.411 44.98,35.085 6.872,5.442 11.612,8.497 13.185,8.497 1.717,0 8.406,-5.015 22.27,-16.697 10.898,-9.183 20.04,-16.965 20.315,-17.292 0.275,-0.328 4.55,-3.944 9.5,-8.037 10.548,-8.722 29.129,-24.497 32,-27.167 1.916,-1.782 2.021,-3.489 2.5,-40.584 l 0.5,-38.723 106.75,-0.255 106.75,-0.254 v -104.889 c 0,-94.722 0.153,-104.947 1.582,-105.495 0.87,-0.334 18.595,-0.607 39.389,-0.607 h 37.808 l 2.579,-3.25 c 2.898,-3.653 13.355,-17.496 43.849,-58.047 24.183,-32.159 24.206,-32.214 17.252,-39.903 -2.177,-2.408 -9.584,-11.056 -16.459,-19.219 -6.875,-8.163 -18.31,-21.645 -25.411,-29.961 -7.101,-8.316 -15.169,-17.932 -17.929,-21.37 l -5.019,-6.25 h -38.82 -38.821 l -0.015,-104.75 c -0.009,-57.613 -0.372,-105.31 -0.806,-105.995 -0.622,-0.979 -23.503,-1.3 -106.735,-1.5 l -105.944,-0.255 -0.262,-38.67 -0.261,-38.669996 -7.739,-6.445 c -8.879,-7.396 -19.054,-15.969 -31.705,-26.715 -4.857,-4.125 -12.105,-10.2 -16.108,-13.5 -4.003,-3.3 -12.455,-10.387 -18.782,-15.75 -6.327,-5.363 -11.647,-9.72700001 -11.823,-9.69900001153 -0.176,0.0290000015 -6.62,5.02300001153 -14.32,11.10000001153 m -14.408,56.906 -27.092,21.057 v 47.383996 c 0,36.809 -0.279,47.565 -1.25,48.193 -0.687,0.445 -47.825,0.87 -104.75,0.945 -56.925,0.075 -104.11,0.188 -104.855,0.25 -1.133,0.095 -1.297,17.511 -1,106.364 l 0.355,106.25 h -48.693 c -31.202,0 -49.013999,0.359 -49.585999,1 -1.056,1.184 -27.295,32.048 -35.505,41.763 -3.144,3.72 -5.716,7.155 -5.716,7.634 0,0.479 4.766,7.11 10.591,14.737 5.825,7.626 15.056,19.761 20.515,26.966 l 9.924,13.1 9.735,0.645 c 5.353999,0.355 26.938999,0.647 47.965999,0.65 l 38.231,0.005 0.459,2.25 c 0.252,1.238 0.739,48.365 1.081,104.728 0.341,56.363 0.856,102.713 1.143,103 0.287,0.287 47.621,0.747 105.188,1.022 l 104.667,0.5 0.26,47.718 0.259,47.718 7.885,6.282 c 4.337,3.455 9.616,7.632 11.733,9.282 23.509,18.329 32.009,24.877 33.919,26.129 2.172,1.423 2.873,0.974 17.603,-11.258 8.438,-7.007 19.954,-16.739 25.591,-21.626 l 10.25,-8.886 v -48.429 -48.43 h 106.393 c 96.094,0 106.452,-0.153 107,-1.582 0.334,-0.87 0.607,-48.12 0.607,-105 v -103.418 l 8.75,-0.136 c 4.813,-0.075 26.733,-0.412 48.712,-0.75 l 39.962,-0.614 20.288,-26.924 c 11.158,-14.808 20.288,-27.547 20.288,-28.308 0,-0.761 -5.064,-7.321 -11.253,-14.576 -6.188,-7.256 -15.479,-18.254 -20.645,-24.442 l -9.393,-11.25 h -48.355 -48.354 v -105.441 c 0,-66.803 -0.354,-105.66 -0.967,-106.038 -0.532,-0.329 -47.821,-0.633 -105.087,-0.676 -57.267,-0.043 -104.982,-0.303 -106.033,-0.578 -1.85,-0.484 -1.913,-2.07 -1.913,-48.306 V 89.104134 l -12.25,-10.369 c -30.912,-26.165 -37.742,-31.786 -38.622,-31.786 -0.519,0 -13.136,9.476 -28.036,21.057"
     stroke="none"
     fill="#c9440f"
     fill-rule="evenodd"
     id="path2686"
     sodipodi:nodetypes="cssccccccccccccccccsccccccccsccccssscssscccscsccccssccccccccccccssccccscscccsccsccccccccssccccccsscccscscccccscccccscsssccsc" />
  <path
     d="m 433.99464,204.11413 c -11.656,1.315 -30.226,5.227 -44.515,9.377 -50.05,14.537 -95.056,44.32 -126.383,83.637 -27.97,35.105 -43.566,70.727 -50.267,114.821 -2.406,15.829 -2.398,47.256 0.015,63 8.074,52.676 30.233,96.8 67.07,133.551 32.727,32.651 68.713,53.557 114.58,66.566 34.614,9.818 80.855,11.716 116.733,4.792 31.225,-6.026 65.429,-21.08 91.053,-40.075 31.651,-23.463 54.547,-51.888 70.131,-87.065 12.806,-28.907 17.77,-55.102 16.802,-88.661 -0.918,-31.821 -6.429,-54.437 -20.13,-82.608 -20.109,-41.345 -49.585,-72.266 -91.375,-95.856 -49.815,-28.119 -113.673,-36.088 -169.199,-21.115 -32.737,8.828 -65.076,28.114 -89.027,53.094 -42.018,43.822 -59.841,103.942 -47.9,161.57 11.631,56.129 48.704,103.214 102.416,130.074 41.004,20.506 91.657,26.409 133.965,15.612 16.604,-4.237 28.757,-9.168 43.395,-17.606 14.017,-8.081 23.213,-15.241 35.721,-27.81 22.013,-22.121 36.788,-49.924 43.106,-81.117 2.736,-13.503 2.481,-44.375 -0.476,-57.684 -12.361,-55.642 -50.233,-98.796 -104.487,-119.061 -29.594,-11.054 -63.918,-13.639 -93.906,-7.072 -16.448,3.602 -37.583,13.401 -51.68,23.961 -9.198,6.89 -22.141,19.166 -25.841,24.51 -0.952,1.375 -2.436,3.267 -3.299,4.205 -2.942,3.2 -11.181,17.862 -14.94,26.587 -13.888,32.23 -13.38,71.16 1.338,102.656 18.737,40.097 53.916,67.352 99.6,77.165 6.455,1.387 12.951,1.833 27,1.857 17.14,0.028 19.309,-0.179 29.5,-2.814 32.067,-8.29 57.676,-28.939 72.381,-58.359 4.394,-8.79 7.698,-21.009 9.164,-33.882 2.254,-19.796 -2.307,-41.716 -12.321,-59.219 -8.739,-15.274 -18.108,-25.657 -32.224,-35.712 -9.731,-6.932 -14.361,-9.327 -25.879,-13.388 -15.92,-5.614 -21.701,-6.598 -38.621,-6.575 -18.379,0.025 -23.486,1.16 -38.989,8.668 -9.433,4.569 -11.504,6.099 -20.564,15.196 -8.74,8.775 -10.686,11.374 -14.684,19.615 -6.513,13.424 -8.092,20.116 -8.143,34.5 -0.05,14.048 1.426,20.401 7.903,34 9.106,19.121 26.03,33.309 48.977,41.062 9.735,3.289 27.848,4.495 36.616,2.439 12.867,-3.017 24.895,-11.161 32.15,-21.768 5.714,-8.354 7.984,-15.388 8.502,-26.346 0.745,-15.773 -3.534,-26.861 -14.658,-37.984 -9.077,-9.075 -19.384,-14.043 -32.128,-15.485 l -5.982,-0.676 v 24.219 c 0,23.889 0.031,24.244 2.25,26.108 1.927,1.619 2.035,2.035 0.75,2.895 -2.101,1.408 -5.653,1.277 -12.289,-0.451 -14.251,-3.712 -23.025,-14.383 -23.031,-28.013 -0.005,-11.333 5.881,-20.191 17.079,-25.7 6.328,-3.114 7.299,-3.297 17.223,-3.252 8.811,0.041 11.816,0.497 18.518,2.813 17.819,6.159 31.69,19.085 37.746,35.178 1.895,5.034 2.24,7.906 2.218,18.461 -0.024,11.21 -0.296,13.137 -2.643,18.672 -6.066,14.304 -16.994,25.562 -30.523,31.444 -11.071,4.813 -14.226,5.383 -29.298,5.288 -12.74,-0.079 -15.592,-0.42 -23.5,-2.807 -18.378,-5.547 -34.359,-15.626 -45.026,-28.394 -27.204,-32.564 -25.439,-77.231 4.263,-107.899 10.99,-11.346 25.884,-19.753 43.263,-24.417 7.076,-1.899 11.013,-2.28 23.5,-2.272 34.392,0.021 62.989,11.57 86.084,34.762 16.237,16.305 26.074,34.398 30.514,56.123 1.845,9.024 1.553,30.406 -0.552,40.5 -9.167,43.955 -48.334,79.795 -95.573,87.456 -42.418,6.879 -90.138,-7.371 -122.605,-36.61 -15.004,-13.513 -23.263,-24.426 -32.384,-42.79 -8.909,-17.937 -12.988,-35.942 -12.98,-57.299 0.007,-20.507 4.141,-38.092 13.198,-56.153 6.198,-12.36 8.588,-16.088 16.733,-26.104 9.376,-11.529 18.116,-19.578 29.955,-27.587 12.632,-8.545 20.188,-12.405 34.734,-17.742 19.187,-7.04 28.629,-8.578 52.876,-8.614 23.684,-0.035 32.892,1.213 52.5,7.111 54.688,16.45 96.931,55.602 114.355,105.988 6.672,19.292 8.126,28.385 8.134,50.844 0.009,22.236 -0.915,28.389 -7.196,47.938 -4.421,13.759 -8.517,22.757 -15.275,33.562 -26.038,41.623 -66.225,69.088 -116.518,79.629 -11.981,2.511 -14.842,2.728 -36.5,2.76 -25.192,0.038 -35.055,-1.13 -57.201,-6.776 -18.439,-4.701 -42.252,-15.431 -59.654,-26.881 -37.337,-24.567 -65.189,-60.161 -78.292,-100.054 -12.823,-39.042 -12.728,-76.161 0.294,-115.117 6.756,-20.212 17.466,-39.704 31.297,-56.961 22.013,-27.466 51.59,-48.936 85.542,-62.095 21.808,-8.453 36.661,-11.723 62.264,-13.708 l 15.75,-1.222 v -24.287 -24.288 l -11.25,0.131 c -6.187,0.072 -14.85,0.537 -19.25,1.034"
     stroke="none"
     fill="#1d4b05"
     fill-rule="evenodd"
     id="path2688" />
</svg>
